<?xml version="1.0" encoding="UTF-8"?>
<svg version="1.1" viewBox="0 0 20 21" xmlns="http://www.w3.org/2000/svg">
<g fill="none" fill-rule="evenodd">
<g transform="translate(-464 -254)" fill="#000" opacity=".9">
<g transform="translate(464 254.5)">
<path d="m10.5 0c-3.5 0-6.6 1.9-8.2 4.8l-2.3-2.3v6.5h6.5l-2.8-2.8c1.3-2.5 3.8-4.2 6.8-4.2 4.1 0 7.5 3.4 7.5 7.5s-3.4 7.5-7.5 7.5c-3.3 0-6-2.1-7.1-5h-2.1c1.1 4 4.8 7 9.2 7 5.3 0 9.5-4.3 9.5-9.5s-4.3-9.5-9.5-9.5zm-1.5 5v5.1l4.7 2.8 0.8-1.3-4-2.4v-4.2h-1.5z"/>
</g>
</g>
</g>
</svg>